<svg xmlns="http://www.w3.org/2000/svg" width="20" height="20" viewBox="0 0 20 20" fill="none">
  <path d="M8.61523 19H11.3845" stroke="#17171B" stroke-width="2" stroke-linecap="round" stroke-linejoin="round"/>
  <path d="M15.5386 8.19951C15.5386 6.67186 14.9551 5.20679 13.9164 4.12658C12.8778 3.04637 11.469 2.43951 10.0001 2.43951C8.53125 2.43951 7.12253 3.04637 6.08386 4.12658C5.04521 5.20679 4.46169 6.67186 4.46169 8.19951V13.2395C4.46169 13.8124 4.24286 14.3619 3.85337 14.7669C3.46388 15.172 2.93559 15.3995 2.38477 15.3995H17.6155C17.0647 15.3995 16.5364 15.172 16.1469 14.7669C15.7574 14.3619 15.5386 13.8124 15.5386 13.2395V8.19951Z" stroke="#17171B" stroke-width="2" stroke-linecap="round" stroke-linejoin="round"/>
  <path d="M1 8.0128C1.00075 6.64212 1.31505 5.2913 1.91695 4.07191C2.51884 2.85252 3.39105 1.79956 4.46154 1" stroke="#17171B" stroke-width="2" stroke-linecap="round" stroke-linejoin="round"/>
  <path d="M18.9996 8.0128C18.9989 6.64212 18.6846 5.2913 18.0827 4.07191C17.4808 2.85252 16.6085 1.79956 15.5381 1" stroke="#17171B" stroke-width="2" stroke-linecap="round" stroke-linejoin="round"/>
</svg>