<svg xmlns="http://www.w3.org/2000/svg" width="16" height="16" viewBox="0 0 16 16" fill="none">
  <path d="M8.75 8C8.75 8.14834 8.70601 8.29334 8.6236 8.41668C8.54119 8.54001 8.42406 8.63614 8.28701 8.69291C8.14997 8.74968 7.99917 8.76453 7.85368 8.73559C7.7082 8.70665 7.57456 8.63522 7.46967 8.53033C7.36478 8.42544 7.29335 8.2918 7.26441 8.14632C7.23547 8.00083 7.25032 7.85003 7.30709 7.71299C7.36386 7.57594 7.45999 7.45881 7.58332 7.3764C7.70666 7.29399 7.85166 7.25 8 7.25C8.19891 7.25 8.38968 7.32902 8.53033 7.46967C8.67098 7.61032 8.75 7.80109 8.75 8ZM5.25 7.25C5.10166 7.25 4.95666 7.29399 4.83332 7.3764C4.70999 7.45881 4.61386 7.57594 4.55709 7.71299C4.50032 7.85003 4.48547 8.00083 4.51441 8.14632C4.54335 8.2918 4.61478 8.42544 4.71967 8.53033C4.82456 8.63522 4.9582 8.70665 5.10368 8.73559C5.24917 8.76453 5.39997 8.74968 5.53701 8.69291C5.67406 8.63614 5.79119 8.54001 5.8736 8.41668C5.95601 8.29334 6 8.14834 6 8C6 7.80109 5.92098 7.61032 5.78033 7.46967C5.63968 7.32902 5.44891 7.25 5.25 7.25ZM10.75 7.25C10.6017 7.25 10.4567 7.29399 10.3333 7.3764C10.21 7.45881 10.1139 7.57594 10.0571 7.71299C10.0003 7.85003 9.98547 8.00083 10.0144 8.14632C10.0433 8.2918 10.1148 8.42544 10.2197 8.53033C10.3246 8.63522 10.4582 8.70665 10.6037 8.73559C10.7492 8.76453 10.9 8.74968 11.037 8.69291C11.1741 8.63614 11.2912 8.54001 11.3736 8.41668C11.456 8.29334 11.5 8.14834 11.5 8C11.5 7.80109 11.421 7.61032 11.2803 7.46967C11.1397 7.32902 10.9489 7.25 10.75 7.25ZM14.5 8C14.5002 9.12221 14.2099 10.2254 13.6574 11.2021C13.1048 12.1788 12.3087 12.9958 11.3467 13.5736C10.3847 14.1514 9.28942 14.4703 8.16759 14.4993C7.04575 14.5282 5.93554 14.2662 4.945 13.7388L2.81687 14.4481C2.64068 14.5069 2.4516 14.5154 2.27083 14.4728C2.09006 14.4301 1.92474 14.3379 1.79341 14.2066C1.66207 14.0753 1.56991 13.9099 1.52725 13.7292C1.48459 13.5484 1.49312 13.3593 1.55187 13.1831L2.26125 11.055C1.79759 10.1833 1.53862 9.21737 1.504 8.23061C1.46937 7.24385 1.66 6.26217 2.06142 5.36008C2.46283 4.458 3.06448 3.65922 3.8207 3.02437C4.57691 2.38952 5.46782 1.9353 6.42579 1.69617C7.38376 1.45705 8.38362 1.4393 9.34948 1.64429C10.3153 1.84928 11.2218 2.27161 12.0001 2.87923C12.7783 3.48685 13.4079 4.26378 13.8411 5.15106C14.2743 6.03834 14.4996 7.01263 14.5 8ZM13.5 8C13.4998 7.15633 13.3054 6.32402 12.9321 5.56747C12.5587 4.81091 12.0163 4.1504 11.3468 3.63702C10.6773 3.12364 9.89863 2.77117 9.07111 2.60687C8.24359 2.44256 7.38936 2.47084 6.57452 2.6895C5.75968 2.90816 5.00606 3.31135 4.37197 3.86787C3.73788 4.42439 3.24032 5.11933 2.91779 5.89891C2.59525 6.6785 2.45639 7.52184 2.51193 8.36368C2.56748 9.20552 2.81595 10.0233 3.23812 10.7537C3.27356 10.8151 3.29556 10.8832 3.30267 10.9537C3.30978 11.0242 3.30184 11.0953 3.27937 11.1625L2.5 13.5L4.8375 12.7206C4.88843 12.7033 4.94184 12.6945 4.99562 12.6944C5.08344 12.6945 5.16966 12.7178 5.24562 12.7619C6.08175 13.2456 7.03054 13.5007 7.99653 13.5013C8.96251 13.5019 9.91162 13.2481 10.7484 12.7654C11.5851 12.2826 12.2799 11.5881 12.763 10.7515C13.246 9.915 13.5002 8.96599 13.5 8Z" fill="black"/>
</svg>