<svg xmlns="http://www.w3.org/2000/svg" width="24" height="24" viewBox="0 0 24 24" fill="none">
  <path d="M4 19L3.07 18.63C3.00355 18.7972 2.98344 18.9792 3.01179 19.1569C3.04014 19.3346 3.1159 19.5013 3.23108 19.6395C3.34626 19.7777 3.4966 19.8823 3.66624 19.9422C3.83589 20.0022 4.01856 20.0152 4.195 19.98L4 19ZM8.706 18.064L9.18 17.183L8.863 17.013L8.511 17.083L8.706 18.064ZM5.624 14.917L6.554 15.287L6.717 14.873L6.521 14.474L5.624 14.917ZM19 12C19 15.246 16.147 18 12.47 18V20C17.111 20 21 16.486 21 12H19ZM5.941 12C5.941 8.754 8.795 6 12.471 6V4C7.83 4 3.94 7.514 3.94 12H5.941ZM12.471 6C16.147 6 19 8.754 19 12H21C21 7.514 17.112 4 12.471 4V6ZM12.47 18C11.265 18 10.143 17.7 9.18 17.183L8.232 18.944C9.53533 19.6427 10.9912 20.0056 12.47 20V18ZM4.195 19.98L8.901 19.044L8.511 17.083L3.805 18.019L4.195 19.981V19.98ZM6.521 14.474C6.1403 13.7048 5.94252 12.8583 5.941 12H3.94C3.94 13.2 4.222 14.338 4.726 15.36L6.521 14.474ZM4.695 14.547L3.07 18.631L4.928 19.369L6.552 15.286L4.694 14.547H4.695Z" fill="black"/>
  <path d="M9 13C9.55228 13 10 12.5523 10 12C10 11.4477 9.55228 11 9 11C8.44772 11 8 11.4477 8 12C8 12.5523 8.44772 13 9 13Z" fill="black"/>
  <path d="M12.5 13C13.0523 13 13.5 12.5523 13.5 12C13.5 11.4477 13.0523 11 12.5 11C11.9477 11 11.5 11.4477 11.5 12C11.5 12.5523 11.9477 13 12.5 13Z" fill="black"/>
  <path d="M16 13C16.5523 13 17 12.5523 17 12C17 11.4477 16.5523 11 16 11C15.4477 11 15 11.4477 15 12C15 12.5523 15.4477 13 16 13Z" fill="black"/>
</svg>