<svg width="50" height="50" viewBox="0 0 431 435" fill="none" xmlns="http://www.w3.org/2000/svg">
<path fill-rule="evenodd" clip-rule="evenodd" d="M262.014 197.407L194.072 264.544C190.315 268.257 184.221 268.257 180.464 264.544C176.706 260.83 176.706 254.809 180.464 251.096L248.792 183.577C248.823 183.545 248.855 183.512 248.886 183.48L317.214 114.032C320.92 110.265 326.93 110.265 330.635 114.032C334.342 117.799 334.342 123.906 330.635 127.673L262.512 196.914C262.503 196.922 262.493 196.932 262.485 196.941L262.307 197.121C262.211 197.219 262.113 197.315 262.014 197.407Z" fill="#EE81A5"/>
<path fill-rule="evenodd" clip-rule="evenodd" d="M181.3 149.583C181.3 166.534 167.799 180.242 151.186 180.242C134.574 180.242 121.073 166.534 121.073 149.583C121.073 132.631 134.574 118.923 151.186 118.923C167.799 118.923 181.3 132.631 181.3 149.583ZM200.281 149.583C200.281 177.17 178.3 199.533 151.186 199.533C124.073 199.533 102.093 177.17 102.093 149.583C102.093 121.996 124.073 99.6323 151.186 99.6323C178.3 99.6323 200.281 121.996 200.281 149.583ZM100.841 298.858C97.1373 295.088 97.1373 288.978 100.841 285.209L224.485 159.408C228.189 155.64 234.195 155.64 237.899 159.408C241.603 163.177 241.603 169.288 237.899 173.057L214.715 196.645L330.441 314.391C334.142 318.155 334.223 324.353 330.623 328.234C327.025 332.114 321.107 332.208 317.407 328.445L201.292 210.303L114.255 298.858C110.551 302.625 104.546 302.625 100.841 298.858Z" fill="#52C1BF"/>
<path fill-rule="evenodd" clip-rule="evenodd" d="M255.987 265.653C271.88 250.324 281.713 236.645 280.599 221.614C280.043 214.113 276.825 207.528 272.517 201.529C268.254 195.592 262.462 189.603 255.904 183.283L242.845 197.283C249.294 203.496 254.007 208.474 257.186 212.901C260.32 217.266 261.478 220.442 261.673 223.064C261.998 227.451 259.805 233.843 249.402 245.076C249.276 245.192 249.153 245.311 249.031 245.434L177.209 318.51C173.505 322.277 173.505 328.389 177.209 332.158C180.913 335.926 186.919 335.926 190.623 332.158L255.987 265.653Z" fill="#EE81A5"/>
</svg>
